<svg xmlns="http://www.w3.org/2000/svg" xmlns:xlink="http://www.w3.org/1999/xlink" viewBox="0 0 655.87 102.08"><defs><style>.cls-1{fill:#0d0d4c;}.cls-10,.cls-11,.cls-12,.cls-13,.cls-14,.cls-15,.cls-16,.cls-17,.cls-2,.cls-3,.cls-4,.cls-5,.cls-6,.cls-7,.cls-8,.cls-9{fill-rule:evenodd;}.cls-2{fill:url(#New_Gradient_Swatch_9);}.cls-3{fill:url(#New_Gradient_Swatch_9-2);}.cls-4{fill:url(#New_Gradient_Swatch_9-3);}.cls-5{fill:url(#New_Gradient_Swatch_9-4);}.cls-6{fill:url(#New_Gradient_Swatch_9-5);}.cls-7{fill:url(#New_Gradient_Swatch_9-6);}.cls-8{fill:url(#New_Gradient_Swatch_9-7);}.cls-9{fill:url(#New_Gradient_Swatch_9-8);}.cls-10{fill:url(#New_Gradient_Swatch_9-9);}.cls-11{fill:url(#New_Gradient_Swatch_8);}.cls-12{fill:url(#New_Gradient_Swatch_9-10);}.cls-13{fill:url(#New_Gradient_Swatch_8-2);}.cls-14{fill:url(#New_Gradient_Swatch_8-3);}.cls-15{fill:url(#New_Gradient_Swatch_8-4);}.cls-16{fill:url(#New_Gradient_Swatch_8-5);}.cls-17{fill:url(#New_Gradient_Swatch_8-6);}</style><linearGradient id="New_Gradient_Swatch_9" x1="42.87" y1="17.01" x2="-1.38" y2="56.4" gradientUnits="userSpaceOnUse"><stop offset="0" stop-color="#5ec7f7"/><stop offset="0.5" stop-color="#58abf6"/><stop offset="1" stop-color="#3872f4"/></linearGradient><linearGradient id="New_Gradient_Swatch_9-2" x1="56.09" y1="31.86" x2="11.84" y2="71.25" xlink:href="#New_Gradient_Swatch_9"/><linearGradient id="New_Gradient_Swatch_9-3" x1="70.58" y1="48.14" x2="26.33" y2="87.53" xlink:href="#New_Gradient_Swatch_9"/><linearGradient id="New_Gradient_Swatch_9-4" x1="57.36" y1="33.29" x2="13.11" y2="72.68" xlink:href="#New_Gradient_Swatch_9"/><linearGradient id="New_Gradient_Swatch_9-5" x1="28.38" y1="0.73" x2="-15.87" y2="40.12" xlink:href="#New_Gradient_Swatch_9"/><linearGradient id="New_Gradient_Swatch_9-6" x1="55.09" y1="30.74" x2="10.84" y2="70.13" xlink:href="#New_Gradient_Swatch_9"/><linearGradient id="New_Gradient_Swatch_9-7" x1="84.07" y1="63.3" x2="39.82" y2="102.69" xlink:href="#New_Gradient_Swatch_9"/><linearGradient id="New_Gradient_Swatch_9-8" x1="69.58" y1="47.02" x2="25.33" y2="86.41" xlink:href="#New_Gradient_Swatch_9"/><linearGradient id="New_Gradient_Swatch_9-9" x1="41.6" y1="15.58" x2="-2.65" y2="54.98" xlink:href="#New_Gradient_Swatch_9"/><linearGradient id="New_Gradient_Swatch_8" x1="83.94" y1="4.32" x2="136.58" y2="59.64" gradientUnits="userSpaceOnUse"><stop offset="0" stop-color="#f89f5c"/><stop offset="0.5" stop-color="#e44fdd"/><stop offset="1" stop-color="#8c4ef7"/></linearGradient><linearGradient id="New_Gradient_Swatch_9-10" x1="39.9" y1="13.68" x2="-4.35" y2="53.07" xlink:href="#New_Gradient_Swatch_9"/><linearGradient id="New_Gradient_Swatch_8-2" x1="54.23" y1="32.6" x2="106.86" y2="87.91" xlink:href="#New_Gradient_Swatch_8"/><linearGradient id="New_Gradient_Swatch_8-3" x1="67.52" y1="19.95" x2="120.15" y2="75.26" xlink:href="#New_Gradient_Swatch_8"/><linearGradient id="New_Gradient_Swatch_8-4" x1="40.66" y1="45.51" x2="93.29" y2="100.82" xlink:href="#New_Gradient_Swatch_8"/><linearGradient id="New_Gradient_Swatch_8-5" x1="57.08" y1="29.88" x2="109.71" y2="85.2" xlink:href="#New_Gradient_Swatch_8"/><linearGradient id="New_Gradient_Swatch_8-6" x1="87.07" y1="1.35" x2="139.7" y2="56.66" xlink:href="#New_Gradient_Swatch_8"/></defs><title>logo</title><g id="Layer_2" data-name="Layer 2"><g id="Logo"><path class="cls-1" d="M241.28,7.1V23.34H218V93.22h-17V23.34H177.92V7.1Z"/><path class="cls-1" d="M324,42.29a16.61,16.61,0,0,1,7.32-8.86,22.3,22.3,0,0,1,11.38-2.95V48.19a18.72,18.72,0,0,0-13,3Q324,55,324,63.82v29.4H308.15V31.71H324Z"/><path class="cls-1" d="M418.91,30q10.57,0,16.91,6.89t6.34,18.45V93.22H426.29V56.44c0-3.69-.91-6.56-2.71-8.61A9.63,9.63,0,0,0,416,44.75a10.41,10.41,0,0,0-8.42,3.57q-3,3.57-3,10.33V93.22H388.64V56.44q0-5.53-2.71-8.61a9.61,9.61,0,0,0-7.62-3.08,10.65,10.65,0,0,0-8.43,3.57q-3.13,3.57-3.14,10.33V93.22H350.87V31.71h15.87v6.52Q372.28,30,383.84,30q11.32,0,16.74,8.85Q406.72,30,418.91,30Z"/><path class="cls-1" d="M559.22,30a22.26,22.26,0,0,1,16.67,6.76q6.58,6.77,6.58,18.7V93.22H566.6V57.42q0-6.15-3.32-9.41a12.11,12.11,0,0,0-8.86-3.26,13.07,13.07,0,0,0-9.84,3.81q-3.69,3.82-3.69,11.45V93.22H525V31.71h15.87V38.6Q546.67,30,559.22,30Z"/><path class="cls-1" d="M285,69h13.36a35.39,35.39,0,0,0,.55-6.26,32.33,32.33,0,1,0-64.65,0A32.43,32.43,0,0,0,296.61,75H278.16a16.11,16.11,0,0,1-11.68,4.6,15.87,15.87,0,0,1-11.79-4.76A15.7,15.7,0,0,1,251,69H285ZM250.84,57a16,16,0,0,1,15.64-11.12,16.09,16.09,0,0,1,11.86,4.76A15.64,15.64,0,0,1,282.23,57Z"/><path class="cls-1" d="M502,69h13.36a35.39,35.39,0,0,0,.55-6.26,32.33,32.33,0,1,0-64.65,0A32.43,32.43,0,0,0,513.61,75H495.16a16.11,16.11,0,0,1-11.68,4.6,15.87,15.87,0,0,1-11.79-4.76A15.7,15.7,0,0,1,468,69H502ZM467.84,57a16,16,0,0,1,15.64-11.12,16.09,16.09,0,0,1,11.86,4.76A15.64,15.64,0,0,1,499.23,57Z"/><path class="cls-1" d="M642,69h13.36a35.39,35.39,0,0,0,.55-6.26,32.33,32.33,0,1,0-64.65,0A32.43,32.43,0,0,0,653.61,75H635.16a16.11,16.11,0,0,1-11.68,4.6,15.87,15.87,0,0,1-11.79-4.76A15.7,15.7,0,0,1,608,69H642ZM607.84,57a16,16,0,0,1,15.64-11.12,16.09,16.09,0,0,1,11.86,4.76A15.64,15.64,0,0,1,639.23,57Z"/><path id="path2879" class="cls-2" d="M43.9,23.92c0-3.81-2.71-7.91-6-9.17L29.1,11.47c-3.33-1.25-6,.82-6,4.63V26.82c0,3.81,2.71,7.91,6,9.16l8.76,3.29c3.33,1.25,6-.82,6-4.63Z"/><path id="path2897" class="cls-3" d="M43.9,50.54c0-3.81-2.71-7.91-6-9.17L29.1,38.09c-3.33-1.25-6,.82-6,4.63V53.44c0,3.81,2.71,7.91,6,9.16l8.76,3.29c3.33,1.25,6-.82,6-4.63Z"/><path id="path2915" class="cls-4" d="M67,59.19c0-3.81-2.71-7.91-6-9.16l-8.75-3.29c-3.34-1.25-6,.82-6,4.63V62.09c0,3.81,2.7,7.91,6,9.17l8.75,3.28c3.34,1.25,6-.82,6-4.63Z"/><path id="path2933" class="cls-5" d="M67,32.57c0-3.81-2.71-7.91-6-9.16l-8.75-3.29c-3.34-1.25-6,.82-6,4.63V35.47c0,3.81,2.7,7.91,6,9.17l8.75,3.28c3.34,1.25,6-.82,6-4.63Z"/><path id="path2951" class="cls-6" d="M20.84,15.26c0-3.8-2.71-7.9-6-9.16L6,2.82C2.71,1.57,0,3.64,0,7.44V18.17C0,22,2.71,26.08,6,27.33l8.76,3.29c3.33,1.25,6-.83,6-4.63Z"/><path id="path2969" class="cls-7" d="M20.84,69.06c0-3.81-2.71-7.91-6-9.17L6,56.61c-3.33-1.25-6,.82-6,4.63V72c0,3.81,2.71,7.91,6,9.16l8.76,3.29c3.33,1.25,6-.82,6-4.63Z"/><path id="path2987" class="cls-8" d="M67,86.36c0-3.81-2.71-7.91-6-9.16l-8.75-3.29c-3.34-1.25-6,.82-6,4.63V89.26c0,3.81,2.7,7.91,6,9.17l8.75,3.28c3.34,1.25,6-.82,6-4.63Z"/><path id="path3005" class="cls-9" d="M43.9,77.71c0-3.81-2.71-7.91-6-9.16L29.1,65.26c-3.33-1.25-6,.82-6,4.63V80.61c0,3.81,2.71,7.91,6,9.17l8.76,3.28c3.33,1.25,6-.82,6-4.63Z"/><path id="path3023" class="cls-10" d="M20.84,41.89c0-3.81-2.71-7.91-6-9.17L6,29.44c-3.33-1.25-6,.82-6,4.63V44.79C0,48.6,2.71,52.7,6,54l8.76,3.29c3.33,1.25,6-.82,6-4.63Z"/><path id="path3041" class="cls-11" d="M93.26,23.62c0-3.81,2.71-7.91,6-9.16l8.75-3.29c3.34-1.25,6,.82,6,4.63V26.52c0,3.81-2.71,7.91-6,9.17L99.31,39c-3.34,1.25-6-.82-6-4.63Z"/><path id="path3059" class="cls-12" d="M41.71,1.41C44.86.13,49.1-.37,51.19.3L64.47,4.6c2.09.68,1.23,2.27-1.92,3.56l-8.26,3.37c-3.14,1.28-7.39,1.78-9.47,1.1L31.53,8.33c-2.08-.67-1.22-2.26,1.92-3.55Z"/><path id="path3077" class="cls-13" d="M70.21,58.89c0-3.81,2.7-7.91,6-9.16L85,46.44c3.34-1.25,6,.83,6,4.63V61.8c0,3.8-2.71,7.91-6,9.16l-8.75,3.28c-3.34,1.25-6-.82-6-4.63Z"/><path id="path3095" class="cls-14" d="M70.21,32.27c0-3.81,2.7-7.91,6-9.16L85,19.82c3.34-1.25,6,.82,6,4.63V35.17c0,3.81-2.71,7.92-6,9.17l-8.75,3.28c-3.34,1.25-6-.82-6-4.63Z"/><path id="path3113" class="cls-15" d="M70.21,86.06c0-3.8,2.7-7.91,6-9.16L85,73.61c3.34-1.25,6,.83,6,4.63V89c0,3.8-2.71,7.91-6,9.16l-8.75,3.28c-3.34,1.25-6-.82-6-4.62Z"/><path id="path3131" class="cls-16" d="M93.26,77.41c0-3.81,2.71-7.91,6-9.16L108.06,65c3.34-1.25,6,.82,6,4.63V80.31c0,3.81-2.71,7.92-6,9.17l-8.75,3.28c-3.34,1.25-6-.82-6-4.63Z"/><path id="path3149" class="cls-17" d="M116.32,41.59c0-3.81,2.71-7.91,6.05-9.16l8.75-3.29c3.34-1.25,6,.82,6,4.63V44.49c0,3.81-2.7,7.91-6,9.17l-8.75,3.28c-3.34,1.25-6.05-.82-6.05-4.63Z"/></g></g></svg>